<?xml version="1.0" encoding="utf-8"?>
<!-- Generator: Adobe Illustrator 16.0.0, SVG Export Plug-In . SVG Version: 6.00 Build 0)  -->
<!DOCTYPE svg PUBLIC "-//W3C//DTD SVG 1.1//EN" "http://www.w3.org/Graphics/SVG/1.1/DTD/svg11.dtd">
<svg version="1.1" xmlns="http://www.w3.org/2000/svg" xmlns:xlink="http://www.w3.org/1999/xlink" x="0px" y="0px" width="400px"
	 height="165px" viewBox="0 0 400 165" enable-background="new 0 0 400 165" xml:space="preserve">
<g id="Layer_2">
</g>
<g id="Layer_1">
	<line fill="none" stroke="#FFFFFF" stroke-width="0.451" x1="5.697" y1="106.581" x2="268.976" y2="106.581"/>
	<line fill="none" stroke="#FFFFFF" stroke-width="0.451" x1="5.697" y1="141.027" x2="247.404" y2="141.027"/>
	<line fill="none" stroke="#FFFFFF" stroke-width="0.451" x1="271.372" y1="140.127" x2="301.333" y2="140.127"/>
	<line fill="none" stroke="#FFFFFF" stroke-width="0.451" x1="351.106" y1="140.127" x2="395.203" y2="140.127"/>
	<line fill="none" stroke="#FFFFFF" stroke-width="0.451" x1="295.811" y1="106.581" x2="339.908" y2="106.581"/>
	<line fill="none" stroke="#FFFFFF" stroke-width="0.451" x1="369.94" y1="106.581" x2="395.202" y2="106.581"/>
	<g>
		<path fill="#FFFFFF" d="M126.72,21.648c0.52,0,1.039,0.52,1.351,1.662c-0.312,1.351-2.182,3.22-5.61,5.61
			c-0.104,0-0.935,0.52-2.182,1.351l-4.155,1.246c-1.143,0.52-2.597,0.728-4.674,0.728l-3.74-0.104c-0.519,0-1.974,0.52-4.467,1.558
			c-1.974,0.312-4.778,2.182-8.518,5.714c0,0.312-1.039,1.246-3.013,2.701c0,0.104-1.558,1.662-4.363,4.571l-2.701,3.428
			l-4.259,7.064c-0.416,1.143-1.35,2.805-3.012,4.675c-0.416,0.623-0.624,1.143-0.624,1.35v0.104l0.312,0.312
			c3.117,0,5.09-0.727,6.025-2.389c3.843-2.701,6.025-4.155,6.44-4.155l2.597-0.624c1.662,0.312,2.493,0.831,2.493,1.766
			c-0.52,1.455-2.078,2.805-4.571,3.948l-4.259,2.182l-0.935,0.208l-1.039,0.52c-0.52,0.312-1.454,1.974-2.285,5.921
			c-0.312,0.623-0.728,0.935-1.247,1.143c-0.727,0-1.143-0.416-1.35-1.455c0.104-2.493,0.416-3.74,0.727-3.74v-0.416l-0.52-0.519
			h-0.52l-1.454-0.104h-1.454c-1.559,0-2.597,0.519-3.117,1.35c0,0.208-1.974,2.493-5.921,6.856l-3.324,2.805
			c-0.831,0.52-1.558,1.143-2.597,2.182c-1.143,1.039-4.155,3.428-6.856,4.882c-1.039,0.624-2.285,1.455-3.636,2.494
			c-0.416,0-1.559,0.623-3.636,1.869c-5.817,2.909-6.648,3.117-8.415,3.429c-3.948,1.558-6.96,1.974-8.934,2.389
			c-2.805,0.624-6.44,0.728-8.207,0.624c-2.286-0.208-8.311-0.624-11.011-2.078c-1.974-1.039-3.221-2.493-4.467-3.739
			c-1.87-1.974-0.416-9.038,0.624-8.207c1.039-1.558,3.013-2.285,5.609-2.182c1.559,0,2.493,1.039,2.701,3.117v0.104
			c0,0.935-0.312,1.662-1.039,2.389l-0.312,1.039v1.143c-0.104,1.974,1.247,3.429,3.947,4.363h0.624
			c2.909,0.831,4.571,1.039,7.375,1.247c3.117,0.104,6.752-1.039,10.7-1.975c1.974-0.831,3.636-1.766,5.401-2.597
			c3.948-2.285,6.752-4.052,11.012-6.856c1.662-1.35,3.844-3.22,6.44-5.609c2.286-2.597,4.259-4.986,5.921-7.271V66.94l-0.312-0.312
			H63.04c-1.558,0.104-3.947,1.143-6.96,3.013h-0.624c-0.831-0.416-1.247-0.935-1.247-1.559v-0.104
			c0.208-0.312,1.039-0.624,2.701-1.247c1.454-1.247,3.636-1.351,6.025-1.974c0.831-0.208,1.766-0.415,3.117-0.727
			c1.039-0.416,1.974-1.247,2.597-2.389c1.143-1.039,2.078-2.493,3.013-4.363c2.078-2.493,3.74-4.674,4.883-6.44l0.831-1.039
			c3.532-4.57,5.609-6.752,10.7-11.323c1.454-1.143,3.532-2.493,6.129-4.051c1.143-0.728,1.87-1.247,1.87-1.559v-0.312
			c0-0.416-0.935-0.52-2.701-0.623l-6.856-1.039l-10.389-2.182c-1.662-0.312-3.116-0.52-4.363-0.623
			c-3.74-0.312-7.375-0.831-11.219,0l-3.013,0.416c-2.909,0.519-6.233,2.285-9.973,5.505c-3.324,3.532-4.882,7.999-4.986,13.505
			c0.208,2.909,0.728,5.194,1.455,6.544c1.039,1.143,1.974,2.078,3.116,2.597c2.597,1.039,5.713,1.351,8.415-0.104
			c1.039-0.623,2.078-1.662,3.22-3.012c0.624-1.143,1.143-2.286,1.558-3.636l0.831-1.87c0.416-0.208,1.143-0.416,2.39-0.416
			c0.727,0.104,1.143,0.416,1.143,1.039c0,1.766-1.662,4.467-4.882,7.895c-1.662,1.558-3.428,2.493-5.09,2.909
			c-0.831,0.312-2.182,0.728-4.155,1.039c-1.766-0.208-4.363,0.623-6.233-0.52c-3.013-1.247-5.194-2.909-6.233-4.986
			c-1.974-4.051-1.974-8.83,0.208-12.674c0.831-2.077,1.454-3.843,3.428-5.817c3.324-4.467,6.752-7.271,10.077-8.414
			c3.22-1.662,5.61-2.597,7.272-2.805c1.454-0.52,2.701-0.935,3.947-1.247c3.428-0.831,6.752-0.831,10.181,0l4.259,0.831
			l4.052,0.728c3.843,0.727,6.96,1.351,9.245,1.766c3.532,0.831,4.986,0.728,8.311,1.662c1.455,0.312,3.324,0.624,5.61,0.728h1.766
			l1.974,0.416c0.935,0,2.805-0.312,5.609-0.831c2.805-0.727,4.571-1.974,5.714-3.532c0.415-1.247,2.077-2.389,4.778-3.636
			L126.72,21.648z M87.452,61.02h0.831c1.351-0.52,2.078-1.039,2.078-1.559l-0.312-0.312h-0.312c-0.624,0-1.455,0.416-2.286,1.454
			V61.02z"/>
		<path fill="#FFFFFF" d="M104.074,85.328c1.247-1.662,2.805-3.429,4.363-4.467h0.208c0.52,0,0.935,0.312,1.247,0.935
			c-0.624,0.935-2.701,3.324-5.61,5.713c-0.831,1.039-4.467,3.74-4.882,4.052c-3.532,2.285-6.336,3.428-8.622,3.324H89.53
			c-1.974,0-3.22-1.039-3.74-3.013l-0.312-1.351v-0.623c0-1.039,0.727-2.805,2.285-5.194c2.493-4.467,3.532-5.713,5.921-8.83
			c0.208-0.312,0.416-0.52,0.623-0.831c1.039-1.247,1.559-2.182,1.559-2.701c-0.208-0.416-0.312-0.519-0.416-0.623H95.14
			c-1.974,0.416-5.194,3.22-9.973,8.726l-2.285,2.493c-0.831-0.312-1.351-0.831-1.351-1.247c0-0.312,1.351-1.87,3.221-3.74
			c1.246-1.247,2.389-2.597,4.467-4.571l5.09-3.948c3.221-1.766,5.921-2.597,8.103-2.597c1.558,0.312,2.286,1.039,2.286,1.974
			c0,1.766-1.247,4.259-3.844,7.271c-4.259,6.441-6.648,10.284-6.856,11.323v1.039c0.104,1.351,0.831,1.974,1.87,1.974
			c1.974-0.416,4.155-1.662,6.44-3.532C102.931,86.471,103.45,85.951,104.074,85.328z M111.346,52.293
			c2.077,0.52,3.116,1.351,3.116,2.493c0,0.624-1.662,2.286-4.986,5.298c-0.831,0.519-1.662,0.727-2.285,0.727
			c-2.286,0-3.324-0.727-3.324-2.493c0-0.623,0.519-1.974,1.766-4.155c0-0.623,1.662-1.247,4.883-1.87H111.346z"/>
		<path fill="#FFFFFF" d="M133.056,67.044c0.624,0,1.766,0.624,3.636,1.87h0.519l3.013-1.35h0.52c0.831,0,1.35,0.416,1.454,1.143
			c0,1.351-0.727,2.909-2.285,4.779c-0.727,1.454-2.389,3.428-4.986,5.921l-3.428,6.648c-0.52,1.247-0.727,2.078-0.727,2.598
			c0.104,0.83,0.519,1.246,1.143,1.246h0.416c1.87,0,5.298-3.221,10.7-8.934l0.624-0.208c0.416,0.104,0.727,0.312,1.039,0.935
			c0,0.208-1.143,1.766-3.532,4.155c-1.247,1.351-1.559,2.286-3.74,4.052c-3.74,2.908-6.544,4.57-8.519,4.883l-1.766-0.104
			l-0.312,0.104c-1.143,0-2.285-1.247-3.532-3.74l-0.416-0.104h-0.312c-0.728,0.104-2.182,0.935-4.467,2.493
			c-2.805,1.038-5.194,1.454-7.064,1.454c-2.493,0-4.363-1.454-5.609-4.259c-0.104-1.351-0.104-1.974-0.208-1.974l0.104-0.104
			v-0.104l-0.104-1.767c0.104-1.766,1.662-4.363,4.571-7.687c5.506-5.402,9.454-8.518,12.05-9.038
			c2.701-1.454,4.363-2.182,5.194-2.182c1.974-0.52,3.532-0.727,4.571-0.727H133.056z M112.592,88.756
			c0,1.351,0.831,2.182,2.701,2.597c1.974,0,3.324-0.312,3.948-0.935c2.389-0.831,4.57-2.909,6.336-6.441
			c0.104-0.623,1.143-2.285,3.324-5.09c1.455-1.662,2.493-3.532,3.22-5.609v-0.935c-0.519-1.35-1.558-1.974-3.116-1.974h-1.766
			c-1.558,0-4.155,1.351-8.103,4.051c-2.597,2.493-4.155,4.675-4.571,6.752l-1.662,4.571c-0.208,0.728-0.312,1.559-0.312,2.285
			V88.756z"/>
		<path fill="#FFFFFF" d="M170.869,57.176c-0.104,0.935-1.87,3.532-5.402,8.207c-0.727,0.52-0.935,1.039-0.935,1.351v0.519
			c0.104,0.312,0.52,0.52,1.039,0.52h3.013l2.701-0.208h3.948c0.519,0,0.831,0.104,0.831,0.312v0.104
			c0,1.039-1.143,1.558-3.324,1.558c0,0.104-0.52,0.104-1.455,0.208l-1.766-0.104l-1.662-0.104l-2.285,0.104l-0.624-0.104
			c-2.285,0-3.636,0.416-3.843,1.247l-4.779,7.479c-0.624,0.623-1.974,3.013-3.636,7.271l-0.831,2.39
			c0.312,1.558,1.039,2.39,2.389,2.39h0.727c2.286,0,6.544-3.74,7.999-4.986l4.882-4.26l0.624-0.208h0.208
			c0.52,0.312,0.728,0.623,0.728,1.039s-2.182,2.493-6.129,6.025c-1.87,1.351-3.012,2.285-3.428,2.701
			c-0.312,0-2.181,1.038-5.505,3.116c-1.766,0.727-4.051,1.039-6.752,1.039c-2.597-1.039-3.947-2.598-3.947-4.986
			c0-1.143,0.831-3.429,2.285-6.856c0.935-1.247,1.454-2.182,1.454-2.805l-0.415-0.208c-0.52,0.623-1.662,1.351-3.117,3.221
			l-0.624-0.208c-0.623-0.312-0.935-0.624-0.935-0.831v-0.208l1.454-1.662c1.559-1.558,4.363-3.947,5.921-5.506l3.74-3.739v-0.624
			c-0.104-0.312-0.416-0.52-0.727-0.52c-1.143,0.312-2.597,0.624-4.155,0.624c-1.351-0.104-1.974-0.52-1.974-0.728
			c0-1.246,2.078-1.87,6.441-2.181l2.286,0.104c1.039,0,2.077-1.039,3.428-3.013c2.701-3.844,4.986-6.129,6.856-6.648
			c2.182-1.455,3.532-2.182,4.363-2.078C170.558,56.137,170.869,56.552,170.869,57.176z"/>
		<path fill="#FFFFFF" d="M312.458,21.648c0.52,0,1.039,0.52,1.351,1.662c-0.312,1.351-2.182,3.22-5.609,5.61
			c-0.104,0-0.935,0.52-2.182,1.351l-4.155,1.246c-1.143,0.52-2.597,0.728-4.675,0.728l-3.739-0.104c-0.52,0-1.974,0.52-4.467,1.558
			c-1.974,0.312-4.779,2.182-8.519,5.714c0,0.312-1.039,1.246-3.013,2.701c0,0.104-1.559,1.662-4.363,4.571l-2.7,3.428l-4.26,7.064
			c-0.415,1.143-1.351,2.805-3.013,4.675c-0.415,0.623-0.623,1.143-0.623,1.35v0.104l0.312,0.312c3.116,0,5.09-0.727,6.025-2.389
			c3.844-2.701,6.025-4.155,6.44-4.155l2.597-0.624c1.662,0.312,2.494,0.831,2.494,1.766c-0.52,1.455-2.078,2.805-4.571,3.948
			l-4.259,2.182l-0.936,0.208l-1.039,0.52c-0.519,0.312-1.454,1.974-2.285,5.921c-0.312,0.623-0.727,0.935-1.246,1.143
			c-0.728,0-1.143-0.416-1.351-1.455c0.104-2.493,0.415-3.74,0.728-3.74v-0.416l-0.52-0.519h-0.52l-1.455-0.104h-1.454
			c-1.558,0-2.597,0.519-3.116,1.35c0,0.208-1.974,2.493-5.921,6.856l-3.324,2.805c-0.831,0.52-1.559,1.143-2.598,2.182
			c-1.143,1.039-4.155,3.428-6.856,4.882c-1.038,0.624-2.285,1.455-3.636,2.494c-0.415,0-1.558,0.623-3.636,1.869
			c-5.817,2.909-6.648,3.117-8.414,3.429c-3.947,1.558-6.96,1.974-8.934,2.389c-2.805,0.624-6.441,0.728-8.207,0.624
			c-2.285-0.208-8.311-0.624-11.012-2.078c-1.974-1.039-3.22-2.493-4.467-3.739c-1.87-1.974-0.416-9.038,0.624-8.207
			c1.039-1.558,3.012-2.285,5.609-2.182c1.558,0,2.493,1.039,2.701,3.117v0.104c0,0.935-0.312,1.662-1.039,2.389l-0.312,1.039v1.143
			c-0.104,1.974,1.247,3.429,3.948,4.363h0.623c2.908,0.831,4.57,1.039,7.376,1.247c3.116,0.104,6.752-1.039,10.699-1.975
			c1.974-0.831,3.636-1.766,5.402-2.597c3.947-2.285,6.752-4.052,11.011-6.856c1.662-1.35,3.844-3.22,6.441-5.609
			c2.285-2.597,4.259-4.986,5.921-7.271V66.94l-0.312-0.312h-1.246c-1.559,0.104-3.948,1.143-6.961,3.013h-0.623
			c-0.831-0.416-1.246-0.935-1.246-1.559v-0.104c0.207-0.312,1.038-0.624,2.7-1.247c1.455-1.247,3.636-1.351,6.025-1.974
			c0.831-0.208,1.767-0.415,3.116-0.727c1.039-0.416,1.975-1.247,2.598-2.389c1.143-1.039,2.077-2.493,3.013-4.363
			c2.077-2.493,3.739-4.674,4.882-6.44l0.831-1.039c3.532-4.57,5.61-6.752,10.7-11.323c1.454-1.143,3.532-2.493,6.129-4.051
			c1.143-0.728,1.87-1.247,1.87-1.559v-0.312c0-0.416-0.936-0.52-2.701-0.623l-6.856-1.039l-10.388-2.182
			c-1.662-0.312-3.116-0.52-4.363-0.623c-3.739-0.312-7.376-0.831-11.22,0l-3.012,0.416c-2.909,0.519-6.233,2.285-9.973,5.505
			c-3.324,3.532-4.883,7.999-4.986,13.505c0.207,2.909,0.727,5.194,1.454,6.544c1.039,1.143,1.974,2.078,3.116,2.597
			c2.598,1.039,5.714,1.351,8.414-0.104c1.039-0.623,2.078-1.662,3.221-3.012c0.623-1.143,1.143-2.286,1.559-3.636l0.831-1.87
			c0.415-0.208,1.143-0.416,2.389-0.416c0.728,0.104,1.144,0.416,1.144,1.039c0,1.766-1.662,4.467-4.883,7.895
			c-1.662,1.558-3.428,2.493-5.09,2.909c-0.832,0.312-2.182,0.728-4.156,1.039c-1.766-0.208-4.362,0.623-6.232-0.52
			c-3.013-1.247-5.194-2.909-6.232-4.986c-1.975-4.051-1.975-8.83,0.207-12.674c0.831-2.077,1.455-3.843,3.429-5.817
			c3.324-4.467,6.752-7.271,10.076-8.414c3.221-1.662,5.609-2.597,7.271-2.805c1.454-0.52,2.701-0.935,3.948-1.247
			c3.428-0.831,6.752-0.831,10.18,0l4.26,0.831l4.051,0.728c3.844,0.727,6.96,1.351,9.246,1.766
			c3.531,0.831,4.986,0.728,8.311,1.662c1.454,0.312,3.324,0.624,5.609,0.728h1.766l1.974,0.416c0.936,0,2.806-0.312,5.61-0.831
			c2.805-0.727,4.57-1.974,5.713-3.532c0.416-1.247,2.078-2.389,4.779-3.636L312.458,21.648z M273.191,61.02h0.831
			c1.351-0.52,2.077-1.039,2.077-1.559l-0.312-0.312h-0.312c-0.623,0-1.454,0.416-2.285,1.454V61.02z"/>
		<path fill="#FFFFFF" d="M289.812,85.328c1.246-1.662,2.805-3.429,4.363-4.467h0.207c0.52,0,0.936,0.312,1.247,0.935
			c-0.623,0.935-2.701,3.324-5.609,5.713c-0.831,1.039-4.467,3.74-4.883,4.052c-3.532,2.285-6.337,3.428-8.622,3.324h-1.246
			c-1.975,0-3.221-1.039-3.74-3.013l-0.312-1.351v-0.623c0-1.039,0.728-2.805,2.285-5.194c2.493-4.467,3.532-5.713,5.921-8.83
			c0.208-0.312,0.416-0.52,0.624-0.831c1.038-1.247,1.558-2.182,1.558-2.701c-0.207-0.416-0.312-0.519-0.415-0.623h-0.312
			c-1.974,0.416-5.194,3.22-9.973,8.726l-2.285,2.493c-0.832-0.312-1.351-0.831-1.351-1.247c0-0.312,1.351-1.87,3.22-3.74
			c1.247-1.247,2.39-2.597,4.467-4.571l5.091-3.948c3.22-1.766,5.921-2.597,8.103-2.597c1.559,0.312,2.285,1.039,2.285,1.974
			c0,1.766-1.246,4.259-3.844,7.271c-4.259,6.441-6.648,10.284-6.855,11.323v1.039c0.104,1.351,0.831,1.974,1.869,1.974
			c1.975-0.416,4.155-1.662,6.441-3.532C288.67,86.471,289.189,85.951,289.812,85.328z M297.084,52.293
			c2.078,0.52,3.117,1.351,3.117,2.493c0,0.624-1.662,2.286-4.986,5.298c-0.832,0.519-1.662,0.727-2.286,0.727
			c-2.285,0-3.324-0.727-3.324-2.493c0-0.623,0.52-1.974,1.767-4.155c0-0.623,1.662-1.247,4.882-1.87H297.084z"/>
		<path fill="#FFFFFF" d="M318.691,90.002c-1.454,1.351-4.363,2.805-8.727,4.571c-1.143,0-2.077,0.208-3.116,0.52
			c-3.532,0-5.921-0.831-6.856-2.39l-0.935-0.312h-0.208c-0.623,0-1.869,1.247-3.636,3.844c-2.182,2.493-4.259,5.194-6.232,8.206
			l-12.362,18.076c-1.351,1.662-2.597,3.428-3.844,5.193c-3.428,5.194-5.09,7.584-8.311,13.921l-4.778,8.103
			c-1.974,2.701-3.636,4.052-5.402,4.052c-1.038,0-2.181-0.52-3.324-1.351v-0.104c1.039-2.597,2.909-5.713,5.402-9.349
			c2.182-3.324,3.532-5.402,4.155-6.129l6.752-10.285c0.623-1.246,3.532-5.401,8.83-12.466l14.647-20.257l11.012-14.543
			c1.246-1.87,1.87-3.013,1.87-3.324v-0.416h-0.624c-2.908,2.39-5.713,4.779-8.622,7.376l-0.52,0.312
			c-0.727-0.416-1.039-0.831-1.039-1.247c0-0.312,1.87-1.87,5.506-5.09c2.182-1.974,4.052-3.74,5.506-5.402
			c0.208,0,2.805-2.493,7.896-7.375c0.415-0.312,1.558-1.454,3.428-3.74c0.312-0.312,1.247-1.351,2.493-3.22l6.545-8.207
			l4.882-5.817c2.701-3.324,4.26-5.09,4.779-5.401c1.869-2.286,3.013-3.74,3.739-4.363c1.662-1.558,3.324-3.116,4.883-4.882
			c3.013-2.805,7.479-6.544,11.012-9.765c1.038-0.935,2.181-2.078,3.428-3.428c0.208,0,1.766-1.351,4.778-3.948
			c0.312,0,1.247-0.727,2.909-2.182l4.362-2.181c2.493-1.351,3.844-1.87,6.025-1.766l2.39,0.208
			c1.662,1.039,2.493,2.182,2.493,3.636c0,3.013-2.701,7.583-7.688,13.816c0,0.208-3.532,3.74-10.596,10.492
			c-0.104,0.416-0.831,1.039-2.182,1.974c-0.831,0.935-3.429,3.117-7.376,6.545c-0.312,0.312-3.636,2.908-10.18,7.791
			c-3.221,2.389-6.961,5.09-11.323,7.999c-4.052,3.012-6.13,4.467-6.441,4.467l-3.636,2.493c-0.207,0.52-0.935,1.143-2.285,2.078
			c0,0.416-1.974,1.974-3.428,3.532c-2.078,3.013-5.506,8.519-7.999,12.05c0,0.935-0.416,2.181-1.351,3.636
			c-0.936,1.662-1.454,2.908-1.454,3.636v0.104c0.312,1.767,1.246,2.701,2.7,2.701c1.351,0,2.493-0.104,3.532-0.415
			c2.182-0.624,5.609-1.767,7.791-3.844c1.767-1.455,3.324-3.324,5.091-4.779l2.805-2.597h0.207c0.52,0,0.936,0.312,1.247,0.831
			l-0.104,0.208c0,0.312-1.662,1.974-4.883,4.778C322.016,87.302,320.562,88.652,318.691,90.002z M324.093,58.941h0.416
			c0.728,0,4.778-2.597,12.05-7.791c3.324-3.013,6.441-5.506,9.35-7.375c0.312-0.52,2.285-1.87,2.805-2.389
			c5.091-3.636,5.194-4.883,9.453-7.999c1.975-1.662,3.74-3.532,5.817-5.402c1.351-1.351,3.013-3.117,4.779-5.298
			c3.531-5.09,5.921-8.726,6.855-10.804l0.104-0.52v-0.52c0-1.039-0.52-1.558-1.559-1.558h-1.351c-1.351,0-2.908,0.831-4.882,2.389
			c-0.52,0-3.117,2.286-7.999,6.856c0,0.208-0.831,0.935-2.493,2.181c0,0.208-1.247,1.351-3.532,3.428
			c0,0.104-0.935,1.039-2.909,2.701c-1.662,1.974-4.259,4.674-7.583,7.895l-6.856,8.311c-6.129,6.856-9.765,11.219-11.011,12.881
			c-1.144,1.247-1.767,2.181-1.767,2.701L324.093,58.941z"/>
		<path fill="#FFFFFF" d="M352.453,57.176c-0.104,0.935-1.87,3.532-5.402,8.207c-0.727,0.52-0.935,1.039-0.935,1.351v0.519
			c0.104,0.312,0.52,0.52,1.039,0.52h3.013l2.701-0.208h3.947c0.52,0,0.831,0.104,0.831,0.312v0.104
			c0,1.039-1.143,1.558-3.324,1.558c0,0.104-0.52,0.104-1.454,0.208l-1.767-0.104l-1.662-0.104l-2.285,0.104l-0.623-0.104
			c-2.286,0-3.636,0.416-3.844,1.247l-4.778,7.479c-0.624,0.623-1.975,3.013-3.637,7.271l-0.831,2.39
			c0.312,1.558,1.039,2.39,2.39,2.39h0.728c2.285,0,6.544-3.74,7.999-4.986l4.882-4.26l0.623-0.208h0.208
			c0.52,0.312,0.728,0.623,0.728,1.039s-2.182,2.493-6.129,6.025c-1.87,1.351-3.013,2.285-3.429,2.701
			c-0.312,0-2.182,1.038-5.506,3.116c-1.766,0.727-4.051,1.039-6.752,1.039c-2.597-1.039-3.947-2.598-3.947-4.986
			c0-1.143,0.831-3.429,2.285-6.856c0.935-1.247,1.454-2.182,1.454-2.805l-0.415-0.208c-0.52,0.623-1.662,1.351-3.117,3.221
			l-0.623-0.208c-0.623-0.312-0.935-0.624-0.935-0.831v-0.208l1.454-1.662c1.559-1.558,4.363-3.947,5.922-5.506l3.739-3.739v-0.624
			c-0.104-0.312-0.415-0.52-0.728-0.52c-1.143,0.312-2.597,0.624-4.155,0.624c-1.351-0.104-1.974-0.52-1.974-0.728
			c0-1.246,2.078-1.87,6.441-2.181l2.285,0.104c1.039,0,2.077-1.039,3.428-3.013c2.701-3.844,4.986-6.129,6.856-6.648
			c2.182-1.455,3.532-2.182,4.363-2.078C352.142,56.137,352.453,56.552,352.453,57.176z"/>
		<path fill="#FFFFFF" d="M349.439,82.938c-0.727-0.104-1.143-0.728-1.143-1.143c1.351-1.974,3.532-4.052,9.246-9.661
			c3.012-2.493,4.259-3.324,5.506-3.636c1.35-0.831,2.7-1.351,4.154-1.351c2.286,0,3.74,0.416,4.156,1.247
			c0.207,0.416,0.415,0.831,0.415,1.454c0,0.831-0.831,2.597-2.493,5.194c-0.623,1.247-1.87,3.116-4.052,5.609
			c-0.727,0.935-1.558,2.286-2.493,4.051c-1.558,1.87-2.389,3.429-2.389,4.571c0,0.727,0.415,1.246,1.351,1.246h0.415
			c1.143,0,2.909-0.935,5.298-3.013l6.337-4.986c5.714-5.298,8.519-8.207,8.519-8.726l3.22-4.883c1.767-2.077,3.74-3.22,5.818-3.22
			c1.246,0,2.077,0.831,2.7,2.389v0.312c0,1.766-1.87,4.155-5.609,7.375c-0.208,0.52-1.039,1.351-2.285,2.493
			c-3.013,4.571-4.986,7.479-6.025,8.727c-0.935,1.558-2.39,3.739-4.467,6.544v0.831l0.312,0.312h0.208
			c1.038-0.104,3.013-1.351,6.024-3.844c0.936-0.519,2.909-2.077,5.714-4.57c0.312,0,2.182-1.767,5.402-5.194l0.935-0.312
			c0.52,0,0.831,0.312,0.935,1.039c-0.519,1.143-2.285,2.805-5.298,5.09l-2.389,2.078c-1.767,1.974-4.26,3.531-6.856,5.193
			c-2.39,1.662-4.259,2.806-5.402,3.324c-2.285,1.455-3.843,2.806-4.986,4.052c-1.454,2.493-2.285,3.74-2.493,3.74
			c-3.739,5.816-7.687,11.427-11.738,16.621c-4.363,5.713-4.883,7.583-11.427,13.712c-1.039,1.039-1.559,1.454-1.662,1.454
			c-1.974,1.662-3.429,2.909-4.363,4.052l-3.844,3.013c-7.271,5.817-11.219,8.726-11.946,8.726
			c-1.143,0.831-2.805,1.559-4.986,2.286c-3.74,0.935-7.895,2.285-11.427,0.83l-0.936-0.312c-1.662-1.454-2.493-2.597-2.493-3.324
			l-0.104-0.935c0.312-1.559,1.351-3.636,3.013-6.129c3.428-5.194,6.232-6.856,11.219-11.427c0.52-0.416,1.247-0.936,1.974-1.559
			c0.624-0.52,2.286-1.974,4.986-4.259c5.299-4.571,7.792-6.856,14.44-11.012l6.129-3.947c5.401-3.221,7.375-4.571,13.816-8.727
			c0.207-0.104,0.312-0.312,0.519-0.415l4.986-3.117c0.52-0.415,2.182-2.908,5.091-7.479c0.415-0.312,1.246-1.454,2.285-3.428
			c0.935-0.831,1.87-2.182,2.805-4.259v-0.104c0-0.207-0.208-0.312-0.52-0.415c-0.415,0-3.636,2.389-9.661,7.063
			c-2.7,1.559-5.193,2.493-7.479,2.701c-2.909,0-4.363-1.143-4.363-3.324v-0.52c0-1.87,1.454-4.57,4.467-8.207
			c0.312-0.52,1.662-2.182,4.155-5.09c1.351-2.078,1.974-3.428,1.974-3.947v-0.728c-0.312-0.519-0.623-0.727-1.246-0.727h-0.104
			c-1.246,0-2.805,1.766-7.688,6.544C351.621,80.757,349.959,82.938,349.439,82.938z M307.575,149.838
			c0.104,1.143,0.52,2.078,1.039,2.598c3.116,1.558,4.571,0.935,8.414-0.831c0.52-0.208,1.039-0.52,1.559-0.831
			c1.143,0.104,3.739-1.767,8.103-5.298c1.455-0.936,2.909-2.078,4.363-3.324c4.259-3.74,8.103-8.622,12.154-13.09
			c1.559-1.766,3.324-3.428,4.986-4.986c3.532-4.259,5.921-7.583,7.063-9.765c3.532-4.675,5.298-7.063,5.298-7.479v-0.415
			l-0.312-0.312h-0.519c-0.52,0-1.767,0.832-4.052,2.598c-0.623,0-3.844,1.974-9.765,5.817c-0.831,0.415-4.571,3.013-11.22,7.999
			l-5.298,4.259c-2.285,1.247-5.714,4.155-10.492,8.519c-5.921,4.986-9.142,8.207-9.661,9.765c-1.038,1.351-1.662,2.805-1.662,4.259
			V149.838z"/>
	</g>
	<g>
		<path fill="#FFFFFF" d="M16.75,131.752L11.967,112.9h2.573l2.238,9.538c0.559,2.349,1.062,4.698,1.398,6.517h0.056
			c0.308-1.874,0.895-4.111,1.539-6.545l2.517-9.51h2.545l2.293,9.565c0.531,2.238,1.035,4.476,1.314,6.461h0.056
			c0.392-2.069,0.923-4.167,1.511-6.517l2.489-9.51h2.489l-5.342,18.852h-2.545l-2.377-9.817c-0.587-2.405-0.979-4.251-1.23-6.153
			h-0.056c-0.336,1.874-0.755,3.72-1.455,6.153l-2.685,9.817H16.75z"/>
		<path fill="#FFFFFF" d="M40.435,112.9v18.852h-2.434V112.9H40.435z"/>
		<path fill="#FFFFFF" d="M49.019,114.971h-5.733v-2.07h13.957v2.07H51.48v16.781h-2.461V114.971z"/>
		<path fill="#FFFFFF" d="M62.525,112.9v7.888h9.118V112.9h2.461v18.852h-2.461v-8.838h-9.118v8.838h-2.434V112.9H62.525z"/>
	</g>
	<g>
		<path fill="#FFFFFF" d="M88.447,125.822l-1.958,5.93h-2.517l6.405-18.852h2.937l6.433,18.852h-2.601l-2.014-5.93H88.447z
			 M94.628,123.921l-1.846-5.427c-0.42-1.23-0.699-2.349-0.979-3.439h-0.056c-0.28,1.118-0.587,2.265-0.951,3.412l-1.846,5.454
			H94.628z"/>
		<path fill="#FFFFFF" d="M102.959,112.9h2.434v16.81h8.055v2.042h-10.489V112.9z"/>
		<path fill="#FFFFFF" d="M119.038,112.9v18.852h-2.434V112.9H119.038z"/>
		<path fill="#FFFFFF" d="M137.16,131.137c-0.895,0.447-2.685,0.895-4.979,0.895c-5.314,0-9.314-3.355-9.314-9.537
			c0-5.901,4-9.901,9.845-9.901c2.35,0,3.832,0.504,4.475,0.839l-0.587,1.986c-0.923-0.447-2.237-0.783-3.804-0.783
			c-4.419,0-7.356,2.825-7.356,7.775c0,4.615,2.657,7.58,7.244,7.58c1.482,0,2.993-0.308,3.972-0.783L137.16,131.137z"/>
		<path fill="#FFFFFF" d="M150.274,122.914h-7.328v6.796h8.167v2.042h-10.601V112.9h10.181v2.042h-7.748v5.957h7.328V122.914z"/>
	</g>
	<g>
		<path fill="#FFFFFF" d="M164.435,131.752l-4.783-18.852h2.573l2.238,9.538c0.559,2.349,1.062,4.698,1.398,6.517h0.056
			c0.308-1.874,0.895-4.111,1.539-6.545l2.517-9.51h2.545l2.293,9.565c0.531,2.238,1.035,4.476,1.314,6.461h0.056
			c0.392-2.069,0.923-4.167,1.511-6.517l2.489-9.51h2.489l-5.342,18.852h-2.545l-2.377-9.817c-0.587-2.405-0.979-4.251-1.23-6.153
			h-0.056c-0.336,1.874-0.755,3.72-1.455,6.153l-2.685,9.817H164.435z"/>
		<path fill="#FFFFFF" d="M187.588,125.822l-1.958,5.93h-2.517l6.405-18.852h2.937l6.433,18.852h-2.602l-2.014-5.93H187.588z
			 M193.769,123.921l-1.846-5.427c-0.42-1.23-0.699-2.349-0.979-3.439h-0.056c-0.28,1.118-0.587,2.265-0.951,3.412l-1.846,5.454
			H193.769z"/>
	</g>
	<g>
		<path fill="#FFFFFF" d="M203.921,114.971h-5.734v-2.07h13.957v2.07h-5.762v16.781h-2.461V114.971z"/>
		<path fill="#FFFFFF" d="M224.754,122.914h-7.328v6.796h8.167v2.042h-10.6V112.9h10.181v2.042h-7.748v5.957h7.328V122.914z"/>
		<path fill="#FFFFFF" d="M229.114,113.152c1.23-0.252,2.992-0.392,4.671-0.392c2.601,0,4.279,0.476,5.454,1.538
			c0.95,0.839,1.482,2.126,1.482,3.58c0,2.489-1.566,4.14-3.553,4.811v0.084c1.454,0.504,2.321,1.847,2.77,3.804
			c0.615,2.63,1.062,4.447,1.454,5.175h-2.518c-0.308-0.531-0.727-2.153-1.259-4.503c-0.559-2.602-1.565-3.58-3.775-3.664h-2.294
			v8.167h-2.433V113.152z M231.547,121.739h2.489c2.602,0,4.252-1.427,4.252-3.58c0-2.434-1.763-3.496-4.335-3.524
			c-1.175,0-2.015,0.111-2.406,0.224V121.739z"/>
		<path fill="#FFFFFF" d="M244.605,128.787c1.091,0.671,2.686,1.23,4.363,1.23c2.489,0,3.943-1.314,3.943-3.216
			c0-1.763-1.007-2.77-3.552-3.748c-3.077-1.091-4.979-2.686-4.979-5.343c0-2.937,2.434-5.118,6.098-5.118
			c1.93,0,3.328,0.447,4.167,0.923l-0.671,1.986c-0.615-0.336-1.874-0.896-3.58-0.896c-2.573,0-3.553,1.539-3.553,2.825
			c0,1.762,1.147,2.629,3.748,3.636c3.188,1.23,4.811,2.77,4.811,5.538c0,2.909-2.153,5.426-6.601,5.426
			c-1.818,0-3.804-0.531-4.811-1.202L244.605,128.787z"/>
	</g>
</g>
</svg>
