<?xml version="1.0" encoding="utf-8"?>
<!-- Generator: Adobe Illustrator 16.0.0, SVG Export Plug-In . SVG Version: 6.00 Build 0)  -->
<!DOCTYPE svg PUBLIC "-//W3C//DTD SVG 1.1//EN" "http://www.w3.org/Graphics/SVG/1.1/DTD/svg11.dtd">
<svg version="1.1" id="Layer_1" xmlns="http://www.w3.org/2000/svg" xmlns:xlink="http://www.w3.org/1999/xlink" x="0px" y="0px"
	 width="36px" height="36px" viewBox="0 0 36 36" enable-background="new 0 0 36 36" xml:space="preserve">
<g>
	<path fill="#404040" stroke="#FFFFFF" stroke-width="2" stroke-miterlimit="10" d="M18.001,33.5c-8.547,0-15.5-6.953-15.5-15.5
		c0-8.546,6.953-15.5,15.5-15.5s15.5,6.953,15.5,15.5S26.548,33.5,18.001,33.5z"/>
	<path fill="#FFFFFF" stroke="#FFFFFF" stroke-width="2" stroke-miterlimit="10" d="M18.001,3c8.271,0,15,6.729,15,15
		c0,8.271-6.729,15-15,15c-8.271,0-15-6.729-15-15C3.001,9.729,9.73,3,18.001,3 M18.001,2c-8.836,0-16,7.164-16,16
		c0,8.838,7.164,16,16,16c8.837,0,16-7.162,16-16C34.001,9.165,26.838,2,18.001,2L18.001,2z"/>
</g>
<path fill="#FFFFFF" d="M19.186,26c0,0,0-4.412,0-7.994h2.242l0.291-2.824h-2.533v-1.66c0-0.625,0.414-0.77,0.705-0.77
	s1.786,0,1.786,0V10.01L19.216,10c-2.731,0-3.353,2.045-3.353,3.354v1.828h-1.58v2.824h1.58c0,3.626,0,7.994,0,7.994H19.186z"/>
</svg>
