<?xml version="1.0" encoding="utf-8"?>
<!-- Generator: Adobe Illustrator 16.0.0, SVG Export Plug-In . SVG Version: 6.00 Build 0)  -->
<!DOCTYPE svg PUBLIC "-//W3C//DTD SVG 1.1//EN" "http://www.w3.org/Graphics/SVG/1.1/DTD/svg11.dtd">
<svg version="1.1" id="Layer_1" xmlns="http://www.w3.org/2000/svg" xmlns:xlink="http://www.w3.org/1999/xlink" x="0px" y="0px"
	 width="36px" height="36px" viewBox="0 0 36 36" enable-background="new 0 0 36 36" xml:space="preserve">
<g>
	<g>
		<path fill="#724C1E" d="M18.001,32.5c-7.995,0-14.5-6.505-14.5-14.5s6.505-14.5,14.5-14.5s14.5,6.505,14.5,14.5
			S25.996,32.5,18.001,32.5z"/>
		<path fill="#FFFFFF" d="M18.001,4.5c7.444,0,13.5,6.056,13.5,13.5c0,7.443-6.056,13.5-13.5,13.5c-7.444,0-13.5-6.057-13.5-13.5
			C4.501,10.556,10.557,4.5,18.001,4.5 M18.001,2.5c-8.547,0-15.5,6.954-15.5,15.5c0,8.547,6.953,15.5,15.5,15.5
			s15.5-6.953,15.5-15.5S26.548,2.5,18.001,2.5L18.001,2.5z"/>
	</g>
	<path fill="#FFFFFF" stroke="#FFFFFF" stroke-width="2" stroke-miterlimit="10" d="M18.001,3c8.271,0,15,6.729,15,15
		c0,8.271-6.729,15-15,15c-8.271,0-15-6.729-15-15C3.001,9.729,9.73,3,18.001,3 M18.001,2c-8.836,0-16,7.164-16,16
		c0,8.838,7.164,16,16,16c8.837,0,16-7.162,16-16C34.001,9.165,26.838,2,18.001,2L18.001,2z"/>
</g>
<g>
	<path fill="#FFFFFF" d="M18,25.502c-4.136,0-7.501-3.365-7.501-7.501S13.864,10.5,18,10.5c4.137,0,7.501,3.365,7.501,7.501
		S22.137,25.502,18,25.502z"/>
	<path fill="#FFFFFF" d="M18,10.999c3.861,0,7.001,3.141,7.001,7.001c0,3.859-3.14,7.002-7.001,7.002
		c-3.861,0-7.001-3.141-7.001-7.002C10.999,14.139,14.14,10.999,18,10.999 M18,9.999c-4.419,0-8.001,3.582-8.001,8.001
		c0,4.42,3.582,8.001,8.001,8.001c4.42,0,8.001-3.581,8.001-8.001C26.002,13.581,22.421,9.999,18,9.999L18,9.999z"/>
</g>
<rect x="2.917" y="14.167" fill="#FFFFFF" width="30.083" height="1.083"/>
<g>
	<path fill="#724C1E" d="M18,12.539c3.012,0,5.46,2.45,5.46,5.461s-2.448,5.46-5.46,5.46c-3.011,0-5.461-2.449-5.461-5.46
		S14.989,12.539,18,12.539 M18,11.539c-3.568,0-6.461,2.893-6.461,6.461c0,3.57,2.893,6.46,6.461,6.46c3.57,0,6.46-2.892,6.46-6.46
		C24.461,14.432,21.57,11.539,18,11.539L18,11.539z"/>
</g>
<path fill="#FFFFFF" d="M27.574,10.939c0,0.331-0.268,0.6-0.6,0.6h-2.699c-0.332,0-0.601-0.269-0.601-0.6v-1.3
	c0-0.332,0.269-0.6,0.601-0.6h2.699c0.332,0,0.6,0.269,0.6,0.6V10.939z"/>
</svg>
