<?xml version="1.0" encoding="utf-8"?>
<!-- Generator: Adobe Illustrator 16.0.0, SVG Export Plug-In . SVG Version: 6.00 Build 0)  -->
<!DOCTYPE svg PUBLIC "-//W3C//DTD SVG 1.1//EN" "http://www.w3.org/Graphics/SVG/1.1/DTD/svg11.dtd">
<svg version="1.1" id="Layer_1" xmlns="http://www.w3.org/2000/svg" xmlns:xlink="http://www.w3.org/1999/xlink" x="0px" y="0px"
	 width="36px" height="36px" viewBox="0 0 36 36" enable-background="new 0 0 36 36" xml:space="preserve">
<g>
	<g>
		<path fill="#404040" d="M18.001,32.5c-7.995,0-14.5-6.505-14.5-14.5s6.505-14.5,14.5-14.5s14.5,6.505,14.5,14.5
			S25.996,32.5,18.001,32.5z"/>
		<path fill="#FFFFFF" d="M18.001,4.5c7.444,0,13.5,6.056,13.5,13.5c0,7.444-6.056,13.5-13.5,13.5c-7.444,0-13.5-6.056-13.5-13.5
			C4.501,10.556,10.557,4.5,18.001,4.5 M18.001,2.5c-8.547,0-15.5,6.954-15.5,15.5c0,8.547,6.953,15.5,15.5,15.5
			s15.5-6.953,15.5-15.5S26.548,2.5,18.001,2.5L18.001,2.5z"/>
	</g>
	<path fill="#FFFFFF" stroke="#FFFFFF" stroke-width="2" stroke-miterlimit="10" d="M18.001,3c8.271,0,15,6.729,15,15
		c0,8.271-6.729,15-15,15c-8.271,0-15-6.729-15-15C3.001,9.729,9.73,3,18.001,3 M18.001,2c-8.836,0-16,7.164-16,16
		c0,8.838,7.164,16,16,16c8.837,0,16-7.162,16-16C34.001,9.165,26.838,2,18.001,2L18.001,2z"/>
</g>
<g>
	<path fill="#FFFFFF" d="M26.001,25.646V19.73c0-3.169-1.692-4.643-3.949-4.643c-1.819,0-2.635,0.998-3.092,1.703v0.033h-0.022
		c0.008-0.01,0.018-0.021,0.022-0.033V15.33h-3.429c0.044,0.967,0,10.316,0,10.316h3.429v-5.763c0-0.311,0.022-0.614,0.113-0.836
		c0.247-0.615,0.813-1.255,1.76-1.255c1.242,0,1.737,0.947,1.737,2.333v5.521H26.001z"/>
	<rect x="10.203" y="15.331" fill="#FFFFFF" width="3.431" height="10.315"/>
	<path fill="#FFFFFF" d="M11.94,10.354c-1.172,0-1.939,0.771-1.939,1.783c0,0.99,0.744,1.783,1.895,1.783h0.022
		c1.196,0,1.94-0.793,1.94-1.783C13.837,11.125,13.114,10.354,11.94,10.354z"/>
</g>
</svg>
