<?xml version="1.0" encoding="utf-8"?>
<!-- Generator: Adobe Illustrator 15.0.2, SVG Export Plug-In . SVG Version: 6.00 Build 0)  -->
<!DOCTYPE svg PUBLIC "-//W3C//DTD SVG 1.1//EN" "http://www.w3.org/Graphics/SVG/1.1/DTD/svg11.dtd">
<svg version="1.1" id="Layer_1" xmlns="http://www.w3.org/2000/svg" xmlns:xlink="http://www.w3.org/1999/xlink" x="0px" y="0px"
	 width="36px" height="36px" viewBox="288 378 36 36" enable-background="new 288 378 36 36" xml:space="preserve">
<polygon fill="#F1B521" points="307.5,378.001 304.5,378.001 304.5,386.001 307.382,386.001 307.5,385.408 "/>
<rect x="294.996" y="382.364" transform="matrix(-0.5 -0.866 0.866 -0.5 116.0704 834.7396)" fill="#F1B521" width="8" height="3"/>
<rect x="289.889" y="387.503" transform="matrix(-0.8661 -0.4999 0.4999 -0.8661 353.9491 872.8281)" fill="#F1B521" width="8.001" height="3"/>
<path fill="#F1B521" d="M295.999,395.044v-0.545H288v3h7.999v-0.103C295.914,396.619,295.91,395.831,295.999,395.044z"/>
<path fill="#F1B521" d="M289.66,403.701l1.5,2.598l6.696-3.865c-0.563-0.838-1.011-1.744-1.332-2.693L289.66,403.701z"/>
<path fill="#F1B521" d="M299.454,404.337l-3.754,6.502l2.599,1.5l3.597-6.233C300.994,405.621,300.175,405.025,299.454,404.337z"/>
<path fill="#F1B521" d="M304.5,413.999h3v-6.422c-0.992-0.033-1.997-0.171-3-0.442V413.999z"/>
<path fill="#F1B521" d="M313.7,412.339l2.597-1.5l-2.665-4.618c-0.903,0.461-1.858,0.817-2.859,1.049L313.7,412.339z"/>
<path fill="#F1B521" d="M316.747,403.938l4.091,2.36l1.499-2.596l-3.743-2.163C318.075,402.43,317.448,403.227,316.747,403.938z"/>
<path fill="#F1B521" d="M324,397.499l-0.002-2.998l-3.528-0.001c-0.026,1-0.135,2.003-0.35,3L324,397.499z"/>
<path fill="#F1B521" d="M322.338,388.298l-1.501-2.596l-1.971,1.138c0.427,0.925,0.775,1.882,1.037,2.864L322.338,388.298z"/>
<path fill="#F1B521" d="M315.729,382.149l0.569-0.987l-2.599-1.5l-0.243,0.42C314.28,380.706,315.035,381.402,315.729,382.149z"/>
<polygon fill="#F1B521" points="307.5,385.408 307.382,386.001 307.5,386.001 "/>
</svg>
