<?xml version="1.0" encoding="utf-8"?>
<!-- Generator: Adobe Illustrator 15.0.2, SVG Export Plug-In . SVG Version: 6.00 Build 0)  -->
<!DOCTYPE svg PUBLIC "-//W3C//DTD SVG 1.1//EN" "http://www.w3.org/Graphics/SVG/1.1/DTD/svg11.dtd">
<svg version="1.1" id="Layer_1" xmlns="http://www.w3.org/2000/svg" xmlns:xlink="http://www.w3.org/1999/xlink" x="0px" y="0px"
	 width="272px" height="800px" viewBox="0 0 272 800" enable-background="new 0 0 272 800" xml:space="preserve">
<rect fill="#00458C" width="272" height="800"/>
<g opacity="0.05">
	<path fill="#FFFFFF" d="M231.88,61.189c0,36.779-25.247,49.281-46.126,49.281c-20.877,0-46.126-12.503-46.126-49.281
		c0-36.777,25.249-49.281,46.126-49.281C206.633,11.908,231.88,24.411,231.88,61.189z M149.583,61.189
		c0,21.242,14.566,35.929,36.172,35.929c21.607,0,36.173-14.687,36.173-35.929c0-21.241-14.565-35.929-36.173-35.929
		C164.148,25.26,149.583,39.947,149.583,61.189z"/>
	<path fill="#FFFFFF" d="M141.936,143.851v-12.624h87.638v43.091c0,27.067-9.104,33.137-23.184,33.137
		c-10.681,0-18.693-7.769-20.393-20.027h-0.243c-1.457,11.774-6.19,14.929-20.998,17.235c-9.348,1.458-17.115,2.549-22.82,4.977
		v-13.352c6.191-2.308,18.45-3.642,28.283-5.948c6.312-1.456,10.802-5.584,10.802-22.092v-24.397H141.936L141.936,143.851z
		 M190.976,143.851v28.768c0,13.352,3.154,21.485,14.321,21.485c10.683,0,14.323-5.825,14.323-21.242v-29.01L190.976,143.851
		L190.976,143.851z"/>
	<path fill="#FFFFFF" d="M229.574,230.032v12.624h-87.637v-12.624H229.574z"/>
	<path fill="#FFFFFF" d="M187.696,317.79v40.663h-39.569c-6.067-14.688-8.499-28.524-8.499-42.24
		c0-35.565,21.485-51.708,46.126-51.708c21.971,0,46.126,13.715,46.126,50.01c0,24.64-7.161,40.176-25.006,43.089v-13.353
		c11.167-3.035,15.052-14.323,15.052-28.524c0-24.641-16.144-37.874-36.05-37.874c-19.299,0-36.293,13.355-36.293,38.844
		c0,9.589,2.184,20.633,5.584,29.13h22.577v-28.039L187.696,317.79L187.696,317.79z"/>
	<path fill="#FFFFFF" d="M229.574,382.729v12.623h-87.637v-12.623H229.574z"/>
	<path fill="#FFFFFF" d="M229.574,490.15v12.625h-87.637v-17.233l74.771-53.651v-0.242h-74.771v-12.623h87.637v17.234
		l-74.771,53.651v0.24L229.574,490.15L229.574,490.15z"/>
	<path fill="#FFFFFF" d="M164.756,595.387v-53.772l-22.82-11.288v-14.081l87.638,45.029v14.809l-87.638,45.036v-14.445
		L164.756,595.387z M174.71,590.532l44.185-21.85l-44.185-21.971V590.532z"/>
	<path fill="#FFFFFF" d="M229.574,637.264v12.626H151.89v50.494h-9.952v-63.118L229.574,637.264L229.574,637.264z"/>
	<path fill="#FFFFFF" d="M107.847,41.404V4.261h10.682v86.909h-10.682V54.027H30.891V41.404H107.847L107.847,41.404z"/>
	<path fill="#FFFFFF" d="M71.675,174.681v-56.32H30.89v-12.624h87.638v12.624h-36.9v56.32h36.9v12.624H30.89v-12.624H71.675z"/>
	<path fill="#FFFFFF" d="M118.528,212.065v12.624H30.891v-12.624H118.528z"/>
	<path fill="#FFFFFF" d="M118.528,319.488v12.624H30.891v-17.235l74.771-53.651v-0.243H30.891v-12.625h87.637v17.236l-74.771,53.65
		v0.243H118.528z"/>
	<path fill="#FFFFFF" d="M118.528,358.814v12.624H79.321l39.207,47.097v18.449l-39.57-49.767l-48.067,53.894v-18.446l46.974-51.226
		H30.891v-12.624L118.528,358.814L118.528,358.814z"/>
	<path fill="#FFFFFF" d="M118.528,456.042v65.547h-9.951v-52.924H80.9v49.523h-9.954v-49.523H40.845v54.378h-9.953v-67.002h87.638
		v0.001H118.528z"/>
	<path fill="#FFFFFF" d="M30.89,557.032v-12.624h87.638v43.093c0,27.066-9.104,33.134-23.183,33.134
		c-10.681,0-18.693-7.767-20.393-20.026h-0.243c-1.457,11.772-6.19,14.931-20.998,17.234c-9.347,1.456-17.116,2.549-22.82,4.977
		v-13.351c6.19-2.307,18.449-3.642,28.282-5.948c6.312-1.458,10.803-5.584,10.803-22.093v-24.398L30.89,557.032L30.89,557.032z
		 M79.928,557.032V585.8c0,13.354,3.158,21.482,14.325,21.482c10.682,0,14.321-5.824,14.321-21.241v-29.009H79.928z"/>
	<path fill="#FFFFFF" d="M95.223,706.088c12.262-1.215,15.658-13.716,15.658-27.918c0-12.502-6.189-23.062-15.9-23.062
		c-4.734,0-9.59,2.916-11.409,13.719l-5.584,32.649c-2.427,14.201-10.561,20.759-21.364,20.759
		c-17.478,0-28.039-15.657-28.039-41.634c0-24.881,9.225-39.327,28.525-40.905v13.352c-11.774,0.363-18.571,11.652-18.571,28.282
		c0,18.207,7.16,28.284,16.75,28.284c24.277,0,2.308-67.125,38.964-67.125c16.873,0,26.584,14.326,26.584,38.235
		c0,18.207-5.463,37.507-25.613,38.72L95.223,706.088L95.223,706.088z"/>
</g>
</svg>
