<?xml version="1.0" encoding="utf-8"?>
<!-- Generator: Adobe Illustrator 15.0.2, SVG Export Plug-In . SVG Version: 6.00 Build 0)  -->
<!DOCTYPE svg PUBLIC "-//W3C//DTD SVG 1.1//EN" "http://www.w3.org/Graphics/SVG/1.1/DTD/svg11.dtd">
<svg version="1.1" id="Layer_1" xmlns="http://www.w3.org/2000/svg" xmlns:xlink="http://www.w3.org/1999/xlink" x="0px" y="0px"
	 width="1280px" height="1024px" viewBox="0 0 1280 1024" enable-background="new 0 0 1280 1024" xml:space="preserve">
<rect fill="#00488A" width="1280" height="1024"/>
<g opacity="0.05">
	<path fill="#FFFFFF" d="M367.449,80.299c0,36.433-25.01,48.817-45.691,48.817s-45.691-12.385-45.691-48.817
		s25.01-48.817,45.691-48.817S367.449,43.867,367.449,80.299z M285.927,80.299c0,21.042,14.429,35.591,35.831,35.591
		c21.403,0,35.832-14.549,35.832-35.591s-14.429-35.591-35.832-35.591C300.356,44.708,285.927,59.257,285.927,80.299z"/>
	<path fill="#FFFFFF" d="M278.352,162.182v-12.505h86.812v42.685c0,26.813-9.018,32.825-22.965,32.825
		c-10.581,0-18.517-7.695-20.2-19.839h-0.241c-1.443,11.663-6.132,14.789-20.801,17.074c-9.258,1.443-16.954,2.525-22.605,4.93
		v-13.227c6.132-2.285,18.276-3.607,28.016-5.892c6.252-1.443,10.701-5.531,10.701-21.884v-24.168H278.352z M326.929,162.182v28.497
		c0,13.227,3.126,21.283,14.188,21.283c10.581,0,14.188-5.771,14.188-21.042v-28.737H326.929z"/>
	<path fill="#FFFFFF" d="M365.165,247.552v12.505h-86.812v-12.505H365.165z"/>
	<path fill="#FFFFFF" d="M323.682,334.484v40.28h-39.198c-6.012-14.549-8.417-28.256-8.417-41.843
		c0-35.23,21.283-51.222,45.691-51.222c21.764,0,45.691,13.587,45.691,49.539c0,24.409-7.094,39.799-24.769,42.685v-13.227
		c11.062-3.006,14.91-14.188,14.91-28.256c0-24.408-15.992-37.515-35.711-37.515c-19.118,0-35.951,13.227-35.951,38.477
		c0,9.499,2.164,20.441,5.531,28.857h22.365v-27.775H323.682z"/>
	<path fill="#FFFFFF" d="M365.165,398.812v12.504h-86.812v-12.504H365.165z"/>
	<path fill="#FFFFFF" d="M365.165,505.223v12.505h-86.812v-17.073l74.067-53.146v-0.24h-74.067v-12.505h86.812v17.073
		l-74.067,53.146v0.24H365.165z"/>
	<path fill="#FFFFFF" d="M300.957,609.469v-53.266l-22.605-11.182v-13.948l86.812,44.608v14.67l-86.812,44.608v-14.309
		L300.957,609.469z M310.817,604.66l43.767-21.644l-43.767-21.763V604.66z"/>
	<path fill="#FFFFFF" d="M365.165,650.951v12.505h-76.953v50.02h-9.859v-62.524H365.165z"/>
	<path fill="#FFFFFF" d="M244.583,60.701V23.907h10.581v86.091h-10.581V73.206h-76.231V60.701H244.583z"/>
	<path fill="#FFFFFF" d="M208.752,192.723v-55.791h-40.4v-12.505h86.812v12.505h-36.553v55.791h36.553v12.505h-86.812v-12.505
		H208.752z"/>
	<path fill="#FFFFFF" d="M255.165,229.755v12.505h-86.812v-12.505H255.165z"/>
	<path fill="#FFFFFF" d="M255.165,336.166v12.505h-86.812v-17.074l74.067-53.146v-0.24h-74.067v-12.505h86.812v17.074
		l-74.067,53.146v0.24H255.165z"/>
	<path fill="#FFFFFF" d="M255.165,375.123v12.505h-38.837l38.837,46.653v18.276l-39.198-49.298l-47.615,53.386v-18.275
		l46.533-50.742h-46.533v-12.505H255.165z"/>
	<path fill="#FFFFFF" d="M255.165,471.435v64.929h-9.859v-52.424h-27.415v49.058h-9.86v-49.058h-29.819v53.867h-9.859v-66.372
		H255.165z"/>
	<path fill="#FFFFFF" d="M168.352,571.474v-12.505h86.812v42.686c0,26.812-9.018,32.824-22.965,32.824
		c-10.581,0-18.517-7.695-20.2-19.839h-0.241c-1.443,11.663-6.132,14.79-20.801,17.073c-9.258,1.443-16.954,2.525-22.605,4.93
		v-13.226c6.132-2.284,18.276-3.606,28.016-5.892c6.252-1.443,10.701-5.531,10.701-21.884v-24.168H168.352z M216.929,571.474v28.497
		c0,13.227,3.126,21.281,14.188,21.281c10.581,0,14.188-5.771,14.188-21.041v-28.737H216.929z"/>
	<path fill="#FFFFFF" d="M232.079,719.127c12.145-1.201,15.511-13.586,15.511-27.654c0-12.385-6.132-22.846-15.751-22.846
		c-4.689,0-9.499,2.887-11.303,13.588l-5.531,32.344c-2.405,14.068-10.461,20.561-21.162,20.561
		c-17.314,0-27.775-15.51-27.775-41.242c0-24.648,9.138-38.957,28.256-40.52v13.226c-11.663,0.36-18.396,11.543-18.396,28.017
		c0,18.035,7.094,28.016,16.593,28.016c24.048,0,2.285-66.492,38.597-66.492c16.713,0,26.333,14.188,26.333,37.875
		c0,18.035-5.411,37.154-25.371,38.355V719.127z"/>
</g>
</svg>
