<?xml version="1.0" encoding="utf-8"?>
<!-- Generator: Adobe Illustrator 16.0.0, SVG Export Plug-In . SVG Version: 6.00 Build 0)  -->
<!DOCTYPE svg PUBLIC "-//W3C//DTD SVG 1.1//EN" "http://www.w3.org/Graphics/SVG/1.1/DTD/svg11.dtd">
<svg version="1.1" id="Layer_1" xmlns="http://www.w3.org/2000/svg" xmlns:xlink="http://www.w3.org/1999/xlink" x="0px" y="0px"
	 width="36px" height="36px" viewBox="0 0 36 36" enable-background="new 0 0 36 36" xml:space="preserve">
<g>
	<path fill="#2D9AD6" stroke="#FFFFFF" stroke-width="2" stroke-miterlimit="10" d="M18.001,33.5c-8.547,0-15.5-6.953-15.5-15.5
		c0-8.546,6.953-15.5,15.5-15.5s15.5,6.953,15.5,15.5S26.548,33.5,18.001,33.5z"/>
	<path fill="#FFFFFF" stroke="#FFFFFF" stroke-width="2" stroke-miterlimit="10" d="M18.001,3c8.271,0,15,6.729,15,15
		c0,8.271-6.729,15-15,15c-8.271,0-15-6.729-15-15C3.001,9.729,9.73,3,18.001,3 M18.001,2c-8.836,0-16,7.164-16,16
		c0,8.838,7.164,16,16,16c8.837,0,16-7.162,16-16C34.001,9.165,26.838,2,18.001,2L18.001,2z"/>
</g>
<path fill="#FFFFFF" d="M26.002,13.039c-0.588,0.26-1.221,0.438-1.885,0.516c0.678-0.406,1.197-1.049,1.443-1.816
	c-0.637,0.377-1.338,0.65-2.084,0.797c-0.602-0.637-1.453-1.035-2.396-1.035c-1.812,0-3.283,1.469-3.283,3.281
	c0,0.258,0.029,0.508,0.085,0.748c-2.728-0.137-5.147-1.443-6.766-3.43c-0.282,0.484-0.444,1.049-0.444,1.65
	c0,1.139,0.579,2.145,1.46,2.732c-0.538-0.018-1.044-0.164-1.487-0.41c0,0.014,0,0.027,0,0.041c0,1.59,1.133,2.917,2.633,3.218
	c-0.274,0.074-0.564,0.114-0.864,0.114c-0.212,0-0.417-0.021-0.617-0.06c0.417,1.304,1.63,2.253,3.065,2.279
	c-1.123,0.881-2.537,1.403-4.076,1.403c-0.265,0-0.525-0.016-0.783-0.045c1.453,0.933,3.178,1.476,5.032,1.476
	c6.038,0,9.341-5.002,9.341-9.339c0-0.143-0.004-0.283-0.01-0.424C25.006,14.275,25.562,13.697,26.002,13.039z"/>
</svg>
