<?xml version="1.0" encoding="utf-8"?>
<!-- Generator: Adobe Illustrator 16.0.0, SVG Export Plug-In . SVG Version: 6.00 Build 0)  -->
<!DOCTYPE svg PUBLIC "-//W3C//DTD SVG 1.1//EN" "http://www.w3.org/Graphics/SVG/1.1/DTD/svg11.dtd">
<svg version="1.1" id="Layer_1" xmlns="http://www.w3.org/2000/svg" xmlns:xlink="http://www.w3.org/1999/xlink" x="0px" y="0px"
	 width="36px" height="36px" viewBox="0 0 36 36" enable-background="new 0 0 36 36" xml:space="preserve">
<g>
	<g>
		<path fill="#404040" d="M18.001,32.5c-7.995,0-14.5-6.505-14.5-14.5s6.505-14.5,14.5-14.5s14.5,6.505,14.5,14.5
			S25.996,32.5,18.001,32.5z"/>
		<path fill="#FFFFFF" d="M18.001,4.5c7.444,0,13.5,6.056,13.5,13.5c0,7.444-6.056,13.5-13.5,13.5c-7.444,0-13.5-6.056-13.5-13.5
			C4.501,10.556,10.557,4.5,18.001,4.5 M18.001,2.5c-8.547,0-15.5,6.954-15.5,15.5c0,8.547,6.953,15.5,15.5,15.5
			s15.5-6.953,15.5-15.5S26.548,2.5,18.001,2.5L18.001,2.5z"/>
	</g>
	<path fill="#FFFFFF" stroke="#FFFFFF" stroke-width="2" stroke-miterlimit="10" d="M18.001,3c8.271,0,15,6.729,15,15
		c0,8.271-6.729,15-15,15c-8.271,0-15-6.729-15-15C3.001,9.729,9.73,3,18.001,3 M18.001,2c-8.836,0-16,7.164-16,16
		c0,8.838,7.164,16,16,16c8.837,0,16-7.162,16-16C34.001,9.165,26.838,2,18.001,2L18.001,2z"/>
</g>
<g>
	<path fill="#FFFFFF" d="M10,20.553v2.35c0,1.613,1.308,2.924,2.922,2.924h10.156c1.613,0,2.922-1.311,2.922-2.924v-2.35
		c0-1.613-1.309-2.924-2.922-2.924H12.922C11.308,17.629,10,18.939,10,20.553z M21.084,21.189c0-0.351,0.115-0.64,0.344-0.859
		c0.23-0.221,0.523-0.33,0.887-0.33c0.371,0,0.656,0.102,0.854,0.307c0.199,0.205,0.299,0.498,0.299,0.883v1.033h-1.549v0.762
		c0,0.213,0.026,0.36,0.08,0.445c0.053,0.081,0.146,0.122,0.272,0.122c0.136,0,0.229-0.034,0.283-0.104
		c0.051-0.07,0.08-0.225,0.08-0.463v-0.184h0.832v0.207c0,0.415-0.1,0.729-0.305,0.938c-0.201,0.21-0.506,0.312-0.908,0.312
		c-0.363,0-0.648-0.109-0.857-0.334c-0.207-0.221-0.312-0.527-0.312-0.917L21.084,21.189L21.084,21.189z M18.332,18.66h0.818v1.768
		c0.109-0.121,0.226-0.217,0.347-0.281c0.125-0.063,0.248-0.096,0.375-0.096c0.256,0,0.451,0.086,0.586,0.258
		c0.138,0.174,0.203,0.426,0.203,0.758v2.248c0,0.285-0.062,0.504-0.19,0.658c-0.125,0.153-0.312,0.229-0.55,0.229
		c-0.159,0-0.301-0.027-0.424-0.088c-0.123-0.059-0.24-0.148-0.347-0.273v0.311h-0.818V18.66z M15.412,20.1h0.81v3.106
		c0,0.096,0.018,0.164,0.05,0.207c0.035,0.045,0.091,0.063,0.166,0.063c0.059,0,0.135-0.026,0.226-0.084
		c0.092-0.059,0.175-0.131,0.251-0.219V20.1h0.81v4.051h-0.81v-0.445c-0.149,0.164-0.305,0.289-0.467,0.375
		c-0.161,0.088-0.318,0.129-0.47,0.129c-0.188,0-0.328-0.059-0.424-0.182c-0.094-0.121-0.142-0.299-0.142-0.541V20.1z
		 M15.056,19.459h-0.944v4.689H13.2v-4.689h-0.943V18.66h2.8L15.056,19.459L15.056,19.459z"/>
	<polygon fill="#FFFFFF" points="15.278,16.223 15.278,13.715 16.472,10.176 15.43,10.176 14.794,12.594 14.73,12.594 
		14.064,10.176 13.031,10.176 14.252,13.826 14.252,16.223 	"/>
	<path fill="#FFFFFF" d="M22.635,21.184c0-0.17-0.029-0.293-0.086-0.363c-0.055-0.075-0.146-0.112-0.27-0.112
		c-0.129,0-0.221,0.037-0.277,0.112c-0.057,0.07-0.084,0.193-0.084,0.363v0.408h0.717V21.184z"/>
	<path fill="#FFFFFF" d="M19.537,23.566c0.1,0,0.172-0.028,0.219-0.088c0.047-0.057,0.07-0.147,0.07-0.278v-2.089
		c0-0.139-0.027-0.242-0.086-0.312s-0.143-0.105-0.252-0.105c-0.057,0-0.115,0.015-0.172,0.039
		c-0.058,0.027-0.111,0.068-0.166,0.125v2.522c0.063,0.063,0.129,0.115,0.19,0.144C19.404,23.552,19.469,23.566,19.537,23.566z"/>
	<path fill="#FFFFFF" d="M18.838,16.01c0.236-0.219,0.354-0.516,0.354-0.898v-2.305c0-0.338-0.121-0.619-0.36-0.834
		c-0.242-0.215-0.551-0.322-0.928-0.322c-0.414,0-0.745,0.102-0.99,0.307c-0.244,0.203-0.367,0.479-0.367,0.824v2.312
		c0,0.379,0.12,0.68,0.358,0.904c0.239,0.225,0.559,0.338,0.957,0.338C18.276,16.336,18.602,16.227,18.838,16.01z M17.582,15.461
		c-0.064-0.066-0.098-0.16-0.098-0.283v-2.43c0-0.098,0.035-0.176,0.104-0.236c0.07-0.061,0.161-0.09,0.271-0.09
		c0.121,0,0.219,0.029,0.293,0.09c0.074,0.061,0.111,0.139,0.111,0.236v2.43c0,0.119-0.037,0.215-0.11,0.283
		c-0.072,0.068-0.17,0.102-0.294,0.102C17.739,15.562,17.646,15.531,17.582,15.461z"/>
	<path fill="#FFFFFF" d="M19.93,11.762v3.729c0,0.266,0.055,0.465,0.16,0.596c0.107,0.135,0.266,0.203,0.477,0.203
		c0.172,0,0.349-0.051,0.529-0.145c0.182-0.094,0.357-0.234,0.523-0.416v0.494h0.912v-4.461h-0.912v3.387
		c-0.084,0.098-0.178,0.176-0.279,0.24c-0.104,0.062-0.189,0.094-0.256,0.094c-0.084,0-0.148-0.023-0.186-0.072
		c-0.037-0.047-0.06-0.123-0.06-0.229v-3.42H19.93z"/>
</g>
</svg>
