<?xml version="1.0" encoding="utf-8"?>
<!-- Generator: Adobe Illustrator 15.0.2, SVG Export Plug-In . SVG Version: 6.00 Build 0)  -->
<!DOCTYPE svg PUBLIC "-//W3C//DTD SVG 1.1//EN" "http://www.w3.org/Graphics/SVG/1.1/DTD/svg11.dtd">
<svg version="1.1" id="Layer_1" xmlns="http://www.w3.org/2000/svg" xmlns:xlink="http://www.w3.org/1999/xlink" x="0px" y="0px"
	 width="100px" height="50px" viewBox="0 0 100 50" enable-background="new 0 0 100 50" xml:space="preserve">
<g>
	<path fill="#F1B521" d="M27.055,19.487l0.01-2.764c0-1.436,0.098-2.207,2.158-2.207h3.809V8.999h-5.46
		c-5.303,0-6.525,2.734-6.525,7.236l0.01,3.252h-4.021v5.508h4.021v16.006h5.998V24.995h5.448l0.586-5.508H27.055z"/>
</g>
<g>
	<path fill="#FFFFFF" d="M76.85,19.487l0.01-2.764c0-1.436,0.098-2.207,2.158-2.207h3.809V8.999h-5.459
		c-5.303,0-6.525,2.734-6.525,7.236l0.012,3.252h-4.021v5.508h4.021v16.006h5.998V24.995h5.447l0.586-5.508H76.85z"/>
</g>
</svg>
