<?xml version="1.0" encoding="utf-8"?>
<!-- Generator: Adobe Illustrator 15.0.2, SVG Export Plug-In . SVG Version: 6.00 Build 0)  -->
<!DOCTYPE svg PUBLIC "-//W3C//DTD SVG 1.1//EN" "http://www.w3.org/Graphics/SVG/1.1/DTD/svg11.dtd">
<svg version="1.1" id="Layer_1" xmlns="http://www.w3.org/2000/svg" xmlns:xlink="http://www.w3.org/1999/xlink" x="0px" y="0px"
	 width="100px" height="50px" viewBox="0 0 100 50" enable-background="new 0 0 100 50" xml:space="preserve">
<g>
	<path d="M27.203,11.485h-8.379c-3.75,0-7.273,2.84-7.273,6.144c0,3.356,2.547,6.082,6.373,6.082l0.773-0.027
		c-0.246,0.477-0.43,1.004-0.43,1.564c0,0.934,0.508,1.694,1.143,2.311l-1.445,0.021c-4.656-0.01-8.232,2.96-8.232,6.024
		c0,3.027,3.924,4.912,8.576,4.912c5.291,0,8.221-3.008,8.221-6.024c0-2.422-0.711-3.877-2.93-5.438
		c-0.752-0.537-2.197-1.846-2.197-2.607c0-0.897,0.256-1.338,1.604-2.393c1.385-1.082,2.371-2.607,2.371-4.375
		c0-2.109-0.947-4.16-2.705-4.832h2.656L27.203,11.485z M24.281,31.972c0.061,0.273,0.098,0.566,0.098,0.859
		c0,2.451-1.572,4.354-6.092,4.354c-3.213,0-5.537-2.029-5.537-4.48c0-2.395,2.879-4.385,6.096-4.355
		c0.748,0.023,1.455,0.137,2.086,0.342C22.672,29.901,23.922,30.585,24.281,31.972L24.281,31.972z M19.137,22.851
		c-2.16-0.059-4.209-2.41-4.578-5.244c-0.385-2.832,1.07-5,3.221-4.94c2.158,0.069,4.207,2.344,4.58,5.178
		C22.74,20.673,21.285,22.919,19.137,22.851L19.137,22.851z"/>
	<path d="M35.728,17.423v-5.938h-1.991v5.938h-6.007v1.989h6.007v6.075h1.991v-6.075h6.006v-1.989H35.728z"/>
</g>
<g>
	<path fill="#FFFFFF" d="M76.471,11.485h-8.379c-3.75,0-7.273,2.84-7.273,6.144c0,3.356,2.547,6.082,6.373,6.082l0.773-0.027
		c-0.246,0.477-0.43,1.004-0.43,1.564c0,0.934,0.508,1.694,1.143,2.311l-1.445,0.021C62.576,27.569,59,30.539,59,33.604
		c0,3.027,3.925,4.912,8.576,4.912c5.291,0,8.222-3.008,8.222-6.024c0-2.422-0.711-3.877-2.931-5.438
		c-0.752-0.537-2.196-1.846-2.196-2.607c0-0.897,0.256-1.338,1.604-2.393c1.385-1.082,2.37-2.607,2.37-4.375
		c0-2.109-0.946-4.16-2.704-4.832h2.655L76.471,11.485z M73.549,31.972c0.061,0.273,0.098,0.566,0.098,0.859
		c0,2.451-1.572,4.354-6.092,4.354c-3.213,0-5.537-2.029-5.537-4.48c0-2.395,2.879-4.385,6.096-4.355
		c0.748,0.023,1.455,0.137,2.086,0.342C71.939,29.901,73.189,30.585,73.549,31.972L73.549,31.972z M68.404,22.851
		c-2.16-0.059-4.209-2.41-4.578-5.244c-0.385-2.832,1.07-5,3.222-4.94c2.157,0.069,4.207,2.344,4.58,5.178
		C72.008,20.673,70.553,22.919,68.404,22.851L68.404,22.851z"/>
	<path fill="#FFFFFF" d="M84.995,17.423v-5.938h-1.991v5.938h-6.007v1.989h6.007v6.075h1.991v-6.075h6.006v-1.989H84.995z"/>
</g>
</svg>
