<?xml version="1.0" encoding="utf-8"?>
<!-- Generator: Adobe Illustrator 15.0.2, SVG Export Plug-In . SVG Version: 6.00 Build 0)  -->
<!DOCTYPE svg PUBLIC "-//W3C//DTD SVG 1.1//EN" "http://www.w3.org/Graphics/SVG/1.1/DTD/svg11.dtd">
<svg version="1.1" id="Layer_1" xmlns="http://www.w3.org/2000/svg" xmlns:xlink="http://www.w3.org/1999/xlink" x="0px" y="0px"
	 width="100px" height="50px" viewBox="-25 0 100 50" enable-background="new -25 0 100 50" xml:space="preserve">
<g>
	<g>
		<g>
			<defs>
				<rect id="SVGID_1_" x="-16.2" y="11.762" width="32.399" height="27.462"/>
			</defs>
			<clipPath id="SVGID_2_">
				<use xlink:href="#SVGID_1_"  overflow="visible"/>
			</clipPath>
			<path clip-path="url(#SVGID_2_)" d="M1.271,11.727h-8.379c-3.75,0-7.273,2.84-7.273,6.143c0,3.357,2.547,6.082,6.373,6.082
				l0.773-0.027c-0.246,0.477-0.43,1.004-0.43,1.564c0,0.934,0.508,1.694,1.143,2.311l-1.445,0.021
				c-4.656-0.01-8.232,2.959-8.232,6.024c0,3.027,3.924,4.912,8.576,4.912c5.291,0,8.221-3.008,8.221-6.024
				c0-2.422-0.711-3.877-2.93-5.439c-0.752-0.537-2.197-1.846-2.197-2.607c0-0.898,0.256-1.338,1.604-2.393
				c1.385-1.082,2.371-2.607,2.371-4.375c0-2.109-0.947-4.16-2.705-4.832h2.656L1.271,11.727z M-1.651,32.213
				c0.061,0.273,0.098,0.566,0.098,0.859c0,2.451-1.572,4.354-6.092,4.354c-3.213,0-5.537-2.03-5.537-4.481
				c0-2.394,2.879-4.385,6.096-4.355c0.748,0.023,1.455,0.137,2.086,0.342C-3.26,30.143-2.01,30.826-1.651,32.213L-1.651,32.213z
				 M-6.795,23.092c-2.16-0.059-4.209-2.41-4.578-5.244c-0.385-2.832,1.07-5,3.221-4.941c2.158,0.07,4.207,2.344,4.58,5.178
				C-3.192,20.914-4.647,23.16-6.795,23.092L-6.795,23.092z"/>
		</g>
		<g>
			<defs>
				<rect id="SVGID_3_" x="-16.2" y="11.762" width="32.399" height="27.462"/>
			</defs>
			<clipPath id="SVGID_4_">
				<use xlink:href="#SVGID_3_"  overflow="visible"/>
			</clipPath>
			<path clip-path="url(#SVGID_4_)" d="M9.795,17.664v-5.938H7.804v5.938H1.797v1.99h6.007v6.075h1.991v-6.075h6.007v-1.99H9.795z"
				/>
		</g>
	</g>
</g>
<g>
	<g>
		<g>
			<defs>
				<rect id="SVGID_5_" x="33.801" y="11.762" width="32.398" height="27.462"/>
			</defs>
			<use xlink:href="#SVGID_5_"  overflow="visible" fill="#FFFFFF"/>
			<clipPath id="SVGID_6_">
				<use xlink:href="#SVGID_5_"  overflow="visible"/>
			</clipPath>
			<path clip-path="url(#SVGID_6_)" fill="#FFFFFF" d="M51.271,11.727h-8.379c-3.75,0-7.273,2.84-7.273,6.143
				c0,3.357,2.547,6.082,6.373,6.082l0.773-0.027c-0.246,0.477-0.431,1.004-0.431,1.564c0,0.934,0.509,1.694,1.144,2.311
				l-1.445,0.021c-4.656-0.01-8.232,2.959-8.232,6.024c0,3.027,3.924,4.912,8.576,4.912c5.291,0,8.221-3.008,8.221-6.024
				c0-2.422-0.711-3.877-2.93-5.439c-0.752-0.537-2.197-1.846-2.197-2.607c0-0.898,0.256-1.338,1.604-2.393
				c1.385-1.082,2.371-2.607,2.371-4.375c0-2.109-0.947-4.16-2.705-4.832h2.655L51.271,11.727z M48.35,32.213
				c0.061,0.273,0.098,0.566,0.098,0.859c0,2.451-1.572,4.354-6.092,4.354c-3.213,0-5.537-2.03-5.537-4.481
				c0-2.394,2.879-4.385,6.096-4.355c0.748,0.023,1.455,0.137,2.086,0.342C46.74,30.143,47.99,30.826,48.35,32.213L48.35,32.213z
				 M43.205,23.092c-2.16-0.059-4.209-2.41-4.578-5.244c-0.385-2.832,1.07-5,3.221-4.941c2.158,0.07,4.207,2.344,4.58,5.178
				C46.809,20.914,45.354,23.16,43.205,23.092L43.205,23.092z"/>
		</g>
		<g>
			<defs>
				<rect id="SVGID_7_" x="33.801" y="11.762" width="32.398" height="27.462"/>
			</defs>
			<use xlink:href="#SVGID_7_"  overflow="visible" fill="#FFFFFF"/>
			<clipPath id="SVGID_8_">
				<use xlink:href="#SVGID_7_"  overflow="visible"/>
			</clipPath>
			<path clip-path="url(#SVGID_8_)" fill="#FFFFFF" d="M59.795,17.664v-5.938h-1.99v5.938h-6.008v1.99h6.008v6.075h1.99v-6.075
				h6.008v-1.99H59.795z"/>
		</g>
	</g>
</g>
</svg>
