<?xml version="1.0" encoding="utf-8"?>
<!-- Generator: Adobe Illustrator 15.0.2, SVG Export Plug-In . SVG Version: 6.00 Build 0)  -->
<!DOCTYPE svg PUBLIC "-//W3C//DTD SVG 1.1//EN" "http://www.w3.org/Graphics/SVG/1.1/DTD/svg11.dtd">
<svg version="1.1" id="Layer_1" xmlns="http://www.w3.org/2000/svg" xmlns:xlink="http://www.w3.org/1999/xlink" x="0px" y="0px"
	 width="100px" height="50px" viewBox="0 0 100 50" enable-background="new 0 0 100 50" xml:space="preserve">
<g>
	<path d="M18.106,15.269c0,1.489-1.1,2.695-2.907,2.695c-1.701,0-2.8-1.206-2.8-2.695c0-1.522,1.135-2.693,2.871-2.693
		S18.071,13.746,18.106,15.269L18.106,15.269z M12.542,37.423V20.089h5.387v17.333H12.542z"/>
	<path d="M21.152,25.617c0-2.161-0.069-3.969-0.141-5.528h4.679l0.25,2.41h0.104c0.709-1.135,2.445-2.8,5.354-2.8
		c3.545,0,6.203,2.375,6.203,7.478v10.246H32.21v-9.605c0-2.233-0.777-3.757-2.729-3.757c-1.488,0-2.375,1.028-2.766,2.021
		c-0.143,0.354-0.178,0.851-0.178,1.347v9.996H21.15L21.152,25.617L21.152,25.617z"/>
</g>
<g>
	<path fill="#FFFFFF" d="M68.167,15.269c0,1.489-1.1,2.695-2.906,2.695c-1.701,0-2.801-1.206-2.801-2.695
		c0-1.522,1.136-2.693,2.871-2.693C67.067,12.575,68.132,13.746,68.167,15.269L68.167,15.269z M62.604,37.423V20.089h5.388v17.333
		H62.604z"/>
	<path fill="#FFFFFF" d="M71.214,25.617c0-2.161-0.069-3.969-0.141-5.528h4.679l0.25,2.41h0.104c0.709-1.135,2.445-2.8,5.354-2.8
		c3.545,0,6.203,2.375,6.203,7.478v10.246h-5.391v-9.605c0-2.233-0.777-3.757-2.729-3.757c-1.488,0-2.375,1.028-2.766,2.021
		c-0.143,0.354-0.178,0.851-0.178,1.347v9.996h-5.388L71.214,25.617L71.214,25.617z"/>
</g>
</svg>
