<?xml version="1.0" encoding="utf-8"?>
<!-- Generator: Adobe Illustrator 15.0.2, SVG Export Plug-In . SVG Version: 6.00 Build 0)  -->
<!DOCTYPE svg PUBLIC "-//W3C//DTD SVG 1.1//EN" "http://www.w3.org/Graphics/SVG/1.1/DTD/svg11.dtd">
<svg version="1.1" id="Layer_1" xmlns="http://www.w3.org/2000/svg" xmlns:xlink="http://www.w3.org/1999/xlink" x="0px" y="0px"
	 width="100px" height="50px" viewBox="-25 0 100 50" enable-background="new -25 0 100 50" xml:space="preserve">
<g>
	<g>
		<g>
			<defs>
				<rect id="SVGID_1_" x="-12.684" y="13.013" width="25.201" height="24.782"/>
			</defs>
			<clipPath id="SVGID_2_">
				<use xlink:href="#SVGID_1_"  overflow="visible"/>
			</clipPath>
			<path clip-path="url(#SVGID_2_)" d="M-6.977,15.639c0,1.489-1.1,2.695-2.907,2.695c-1.701,0-2.8-1.206-2.8-2.695
				c0-1.522,1.135-2.693,2.871-2.693S-7.012,14.116-6.977,15.639L-6.977,15.639z M-12.541,37.793V20.46h5.387v17.333H-12.541z"/>
		</g>
	</g>
	<path d="M-3.931,25.988c0-2.161-0.069-3.969-0.141-5.528h4.679l0.25,2.41h0.105c0.708-1.135,2.444-2.8,5.352-2.8
		c3.545,0,6.203,2.375,6.203,7.478v10.245H7.128v-9.605c0-2.233-0.779-3.757-2.729-3.757c-1.488,0-2.375,1.028-2.765,2.021
		c-0.143,0.354-0.178,0.851-0.178,1.347v9.996h-5.389L-3.931,25.988L-3.931,25.988z"/>
</g>
<g>
	<g>
		<g>
			<defs>
				<rect id="SVGID_3_" x="37.316" y="13.013" width="25.201" height="24.782"/>
			</defs>
			<use xlink:href="#SVGID_3_"  overflow="visible" fill="#FFFFFF"/>
			<clipPath id="SVGID_4_">
				<use xlink:href="#SVGID_3_"  overflow="visible"/>
			</clipPath>
			<path clip-path="url(#SVGID_4_)" fill="#FFFFFF" d="M43.023,15.639c0,1.489-1.1,2.695-2.906,2.695
				c-1.701,0-2.801-1.206-2.801-2.695c0-1.522,1.136-2.693,2.871-2.693C41.924,12.946,42.988,14.116,43.023,15.639L43.023,15.639z
				 M37.46,37.793V20.46h5.388v17.333H37.46z"/>
		</g>
	</g>
	<path fill="#FFFFFF" d="M46.07,25.988c0-2.161-0.069-3.969-0.142-5.528h4.679l0.25,2.41h0.105c0.708-1.135,2.444-2.8,5.352-2.8
		c3.545,0,6.203,2.375,6.203,7.478v10.245h-5.389v-9.605c0-2.233-0.779-3.757-2.729-3.757c-1.488,0-2.375,1.028-2.765,2.021
		c-0.143,0.354-0.178,0.851-0.178,1.347v9.996h-5.39V25.988H46.07z"/>
</g>
</svg>
