<?xml version="1.0" encoding="utf-8"?>
<!-- Generator: Adobe Illustrator 15.0.2, SVG Export Plug-In . SVG Version: 6.00 Build 0)  -->
<!DOCTYPE svg PUBLIC "-//W3C//DTD SVG 1.1//EN" "http://www.w3.org/Graphics/SVG/1.1/DTD/svg11.dtd">
<svg version="1.1" id="Layer_1" xmlns="http://www.w3.org/2000/svg" xmlns:xlink="http://www.w3.org/1999/xlink" x="0px" y="0px"
	 width="100px" height="50px" viewBox="0 0 100 50" enable-background="new 0 0 100 50" xml:space="preserve">
<g>
	<path fill="#F1B521" d="M41,15.275c-1.172,0.521-2.441,0.881-3.771,1.039c1.357-0.814,2.394-2.1,2.892-3.637
		c-1.271,0.752-2.676,1.301-4.181,1.592c-1.19-1.27-2.899-2.068-4.784-2.068c-3.623,0-6.562,2.939-6.562,6.562
		c0,0.518,0.059,1.014,0.168,1.496c-5.461-0.277-10.293-2.885-13.535-6.859c-0.568,0.967-0.891,2.1-0.891,3.303
		c0,2.275,1.162,4.289,2.92,5.457c-1.076-0.025-2.08-0.328-2.967-0.82v0.082c0,3.182,2.264,5.838,5.262,6.443
		c-0.549,0.146-1.133,0.225-1.727,0.225c-0.422,0-0.83-0.039-1.24-0.117c0.84,2.607,3.258,4.502,6.131,4.562
		c-2.248,1.758-5.08,2.803-8.154,2.803c-0.527,0-1.045-0.027-1.562-0.088c2.91,1.865,6.357,2.949,10.066,2.949
		c12.072,0,18.674-10,18.674-18.67l-0.02-0.852C39.008,17.748,40.121,16.596,41,15.275L41,15.275z"/>
</g>
<g>
	<path fill="#FFFFFF" d="M91.001,15.275c-1.172,0.521-2.44,0.881-3.771,1.039c1.356-0.814,2.394-2.1,2.892-3.637
		c-1.271,0.752-2.677,1.301-4.181,1.592c-1.19-1.27-2.899-2.068-4.784-2.068c-3.623,0-6.562,2.939-6.562,6.562
		c0,0.518,0.06,1.014,0.168,1.496c-5.462-0.277-10.293-2.885-13.535-6.859c-0.567,0.967-0.893,2.1-0.893,3.303
		c0,2.275,1.162,4.289,2.921,5.457c-1.075-0.025-2.08-0.328-2.968-0.82v0.082c0,3.182,2.266,5.838,5.264,6.443
		c-0.551,0.146-1.135,0.225-1.729,0.225c-0.422,0-0.83-0.039-1.24-0.117c0.841,2.607,3.259,4.502,6.132,4.562
		c-2.248,1.758-5.079,2.803-8.153,2.803c-0.526,0-1.045-0.027-1.562-0.088c2.91,1.865,6.355,2.949,10.064,2.949
		c12.072,0,18.675-10,18.675-18.67l-0.021-0.852C89.009,17.748,90.122,16.596,91.001,15.275L91.001,15.275z"/>
</g>
</svg>
